<?xml version="1.0" encoding="UTF-8" standalone="no"?>
<!-- Created with Inkscape (http://www.inkscape.org/) -->

<svg
   xmlns:ns0="http://www.iki.fi/pav/software/textext/"
   xmlns:dc="http://purl.org/dc/elements/1.1/"
   xmlns:cc="http://creativecommons.org/ns#"
   xmlns:rdf="http://www.w3.org/1999/02/22-rdf-syntax-ns#"
   xmlns:svg="http://www.w3.org/2000/svg"
   xmlns="http://www.w3.org/2000/svg"
   xmlns:xlink="http://www.w3.org/1999/xlink"
   xmlns:sodipodi="http://sodipodi.sourceforge.net/DTD/sodipodi-0.dtd"
   xmlns:inkscape="http://www.inkscape.org/namespaces/inkscape"
   width="326.93652mm"
   height="139.12778mm"
   viewBox="0 0 326.93652 139.12778"
   version="1.1"
   id="svg8"
   inkscape:version="0.92.1 r15371"
   sodipodi:docname="SingleParticleMoves.svg">
  <sodipodi:namedview
     id="base"
     pagecolor="#ffffff"
     bordercolor="#666666"
     borderopacity="1.0"
     inkscape:pageopacity="0.0"
     inkscape:pageshadow="2"
     inkscape:zoom="0.49497475"
     inkscape:cx="934.82481"
     inkscape:cy="-25.803407"
     inkscape:document-units="mm"
     inkscape:current-layer="layer1"
     showgrid="false"
     inkscape:snap-object-midpoints="true"
     inkscape:window-width="1596"
     inkscape:window-height="1735"
     inkscape:window-x="0"
     inkscape:window-y="0"
     inkscape:window-maximized="0"
     fit-margin-top="0"
     fit-margin-left="0"
     fit-margin-right="0"
     fit-margin-bottom="0">
    <inkscape:grid
       originy="-120.5744"
       originx="-0.80238338"
       id="grid4495"
       type="xygrid" />
  </sodipodi:namedview>
  <defs
     id="defs2">
    <marker
       inkscape:isstock="true"
       style="overflow:visible"
       id="StopL"
       refX="0.0"
       refY="0.0"
       orient="auto"
       inkscape:stockid="StopL">
      <path
         transform="scale(0.8)"
         style="fill:none;fill-opacity:0.75;fill-rule:evenodd;stroke:#000000;stroke-width:1pt;stroke-opacity:1"
         d="M 0.0,5.65 L 0.0,-5.65"
         id="path4763" />
    </marker>
    <marker
       inkscape:isstock="true"
       style="overflow:visible"
       id="Arrow1Mend"
       refX="0"
       refY="0"
       orient="auto"
       inkscape:stockid="Arrow1Mend">
      <path
         inkscape:connector-curvature="0"
         transform="matrix(-0.4,0,0,-0.4,-4,0)"
         style="fill:#000000;fill-opacity:1;fill-rule:evenodd;stroke:#000000;stroke-width:1.00000003pt;stroke-opacity:1"
         d="M 0,0 5,-5 -12.5,0 5,5 Z"
         id="path4603" />
    </marker>
    <linearGradient
       id="linearGradient4491"
       inkscape:collect="always">
      <stop
         id="stop4487"
         offset="0"
         style="stop-color:#ffffff;stop-opacity:1" />
      <stop
         id="stop4489"
         offset="1"
         style="stop-color:#282828;stop-opacity:0.99215686" />
    </linearGradient>
    <radialGradient
       gradientTransform="translate(2.3080333,53.960978)"
       gradientUnits="userSpaceOnUse"
       r="16.79892"
       fy="29.864105"
       fx="38.620445"
       cy="29.864105"
       cx="38.620445"
       id="radialGradient4493"
       xlink:href="#linearGradient4491"
       inkscape:collect="always" />
    <radialGradient
       gradientTransform="translate(92.809342,55.391606)"
       gradientUnits="userSpaceOnUse"
       r="16.79892"
       fy="29.864105"
       fx="38.620445"
       cy="29.864105"
       cx="38.620445"
       id="radialGradient4493-3"
       xlink:href="#linearGradient4491"
       inkscape:collect="always" />
    <radialGradient
       gradientTransform="translate(200.46848,65.441363)"
       gradientUnits="userSpaceOnUse"
       r="16.79892"
       fy="29.864105"
       fx="38.620445"
       cy="29.864105"
       cx="38.620445"
       id="radialGradient4493-3-3"
       xlink:href="#linearGradient4491"
       inkscape:collect="always" />
  </defs>
  <metadata
     id="metadata5">
    <rdf:RDF>
      <cc:Work
         rdf:about="">
        <dc:format>image/svg+xml</dc:format>
        <dc:type
           rdf:resource="http://purl.org/dc/dcmitype/StillImage" />
        <dc:title></dc:title>
      </cc:Work>
    </rdf:RDF>
  </metadata>
  <g
     transform="translate(-0.80238342,-37.297825)"
     id="layer1"
     inkscape:groupmode="layer"
     inkscape:label="Layer 1">
    <g
       id="g5205">
      <circle
         style="opacity:1;vector-effect:none;fill:url(#radialGradient4493);fill-opacity:1;stroke:none;stroke-width:5;stroke-linecap:butt;stroke-linejoin:miter;stroke-miterlimit:4;stroke-dasharray:none;stroke-dashoffset:0;stroke-opacity:1"
         id="path4485"
         cx="44.135715"
         cy="88.903206"
         r="14.298919" />
      <circle
         style="opacity:1;vector-effect:none;fill:none;fill-opacity:0.99215686;stroke:#2d0000;stroke-width:2;stroke-linecap:butt;stroke-linejoin:miter;stroke-miterlimit:4;stroke-dasharray:2, 2;stroke-dashoffset:0;stroke-opacity:1"
         id="path4497"
         cx="44.135715"
         cy="88.903206"
         r="42.333332" />
    </g>
    <g
       transform="translate(6.8820717,-1.4306335)"
       id="g5209">
      <rect
         style="opacity:1;vector-effect:none;fill:none;fill-opacity:0.99215686;stroke:#2d0000;stroke-width:2;stroke-linecap:butt;stroke-linejoin:miter;stroke-miterlimit:4;stroke-dasharray:1.99999998, 1.99999998;stroke-dashoffset:0;stroke-opacity:1"
         id="rect4499"
         width="76.839996"
         height="76.839989"
         x="96.217026"
         y="51.913845" />
      <circle
         style="opacity:1;vector-effect:none;fill:url(#radialGradient4493-3);fill-opacity:1;stroke:none;stroke-width:5;stroke-linecap:butt;stroke-linejoin:miter;stroke-miterlimit:4;stroke-dasharray:none;stroke-dashoffset:0;stroke-opacity:1"
         id="path4485-5"
         cx="134.63702"
         cy="90.333839"
         r="14.29892" />
    </g>
    <g
       transform="translate(-1.4320509e-6,-11.059684)"
       id="g5201">
      <path
         style="fill:none;stroke:#000000;stroke-width:2;stroke-linecap:butt;stroke-linejoin:miter;stroke-miterlimit:4;stroke-dasharray:2, 2;stroke-dashoffset:0;stroke-opacity:1"
         d="m 197.3036,128.04464 h 44.97916 44.97914 L 242.28276,50.353373 Z"
         id="path4527"
         inkscape:connector-curvature="0"
         sodipodi:nodetypes="ccccc" />
      <circle
         style="opacity:1;vector-effect:none;fill:url(#radialGradient4493-3-3);fill-opacity:1;stroke:none;stroke-width:5;stroke-linecap:butt;stroke-linejoin:miter;stroke-miterlimit:4;stroke-dasharray:none;stroke-dashoffset:0;stroke-opacity:1"
         id="path4485-5-2"
         cx="242.29617"
         cy="100.38361"
         r="14.298921" />
      <circle
         style="opacity:1;vector-effect:none;fill:none;fill-opacity:1;stroke:#000000;stroke-width:2;stroke-linecap:butt;stroke-linejoin:miter;stroke-miterlimit:4;stroke-dasharray:8, 2;stroke-dashoffset:0;stroke-opacity:1"
         id="path4485-5-2-7"
         cx="281.59225"
         cy="124.83185"
         r="14.298921" />
      <path
         style="fill:none;stroke:#000000;stroke-width:2;stroke-linecap:butt;stroke-linejoin:miter;stroke-miterlimit:4;stroke-dasharray:4.00000011, 2.00000006;stroke-dashoffset:0;stroke-opacity:1"
         d="m 236.04614,150.56827 h 44.97916 44.97915 L 281.0253,72.877003 Z"
         id="path4527-0"
         inkscape:connector-curvature="0"
         sodipodi:nodetypes="ccccc" />
      <path
         style="fill:none;stroke:#000000;stroke-width:2;stroke-linecap:butt;stroke-linejoin:miter;stroke-miterlimit:4;stroke-dasharray:none;stroke-opacity:1;marker-end:url(#Arrow1Mend)"
         d="m 242.29617,100.3836 39.29608,24.44824"
         id="path4592"
         inkscape:connector-curvature="0" />
    </g>
    <text
       id="text5178"
       y="179.15411"
       x="17.939211"
       style="font-style:normal;font-weight:normal;font-size:28.22222137px;line-height:1.25;font-family:sans-serif;letter-spacing:0px;word-spacing:0px;fill:#000000;fill-opacity:1;stroke:none;stroke-width:0.26458332"
       xml:space="preserve"><tspan
         style="font-size:28.22222137px;stroke-width:0.26458332"
         y="179.15411"
         x="17.939211"
         id="tspan5176"
         sodipodi:role="line">	✓</tspan></text>
    <text
       id="text5182"
       y="176.4256"
       x="249.27924"
       style="font-style:normal;font-weight:normal;font-size:10.58333302px;line-height:1.25;font-family:sans-serif;letter-spacing:0px;word-spacing:0px;fill:#000000;fill-opacity:1;stroke:none;stroke-width:0.26458332"
       xml:space="preserve"><tspan
         style="font-size:28.22222137px;stroke-width:0.26458332"
         y="176.4256"
         x="249.27924"
         id="tspan5180"
         sodipodi:role="line">✘</tspan></text>
    <text
       id="text5178-9"
       y="179.15411"
       x="115.32259"
       style="font-style:normal;font-weight:normal;font-size:28.22222137px;line-height:1.25;font-family:sans-serif;letter-spacing:0px;word-spacing:0px;fill:#000000;fill-opacity:1;stroke:none;stroke-width:0.26458332"
       xml:space="preserve"><tspan
         style="font-size:28.22222137px;stroke-width:0.26458332"
         y="179.15411"
         x="115.32259"
         id="tspan5176-3"
         sodipodi:role="line">	✓</tspan></text>
    <path
       inkscape:connector-curvature="0"
       id="path5248"
       d="M 44.135714,88.903205 H 86.602976"
       style="fill:none;stroke:#000000;stroke-width:2;stroke-linecap:butt;stroke-linejoin:miter;stroke-opacity:1;marker-start:url(#StopL);marker-end:url(#StopL);stroke-miterlimit:4;stroke-dasharray:none" />
    <g
       id="g5384"
       ns0:preamble="/home/mjki2mb2/main/textext_preamble.ini"
       ns0:text="$\\Delta r_\\text{max}$"
       transform="translate(-171.60119,-58.964286)">
      <defs
         id="defs5365">
        <g
           id="g5363">
          <symbol
             id="textext-9ea3f690-0"
             overflow="visible"
             style="overflow:visible">
            <path
               id="path5339"
               d=""
               style="stroke:none"
               inkscape:connector-curvature="0" />
          </symbol>
          <symbol
             id="textext-9ea3f690-1"
             overflow="visible"
             style="overflow:visible">
            <path
               id="path5342"
               d="m 4.40625,-6.953125 c -0.0625,-0.140625 -0.09375,-0.1875 -0.265625,-0.1875 -0.15625,0 -0.1875,0.046875 -0.25,0.1875 l -3.375,6.75 C 0.46875,-0.109375 0.46875,-0.09375 0.46875,-0.078125 0.46875,0 0.53125,0 0.6875,0 h 6.921875 c 0.15625,0 0.21875,0 0.21875,-0.078125 0,-0.015625 0,-0.03125 -0.046875,-0.125 z m -0.578125,0.8125 2.6875,5.390625 h -5.375 z m 0,0"
               style="stroke:none"
               inkscape:connector-curvature="0" />
          </symbol>
          <symbol
             id="textext-9ea3f690-2"
             overflow="visible"
             style="overflow:visible">
            <path
               id="path5345"
               d=""
               style="stroke:none"
               inkscape:connector-curvature="0" />
          </symbol>
          <symbol
             id="textext-9ea3f690-3"
             overflow="visible"
             style="overflow:visible">
            <path
               id="path5348"
               d="m 0.875,-0.59375 c -0.03125,0.15625 -0.09375,0.390625 -0.09375,0.4375 0,0.171875 0.140625,0.265625 0.296875,0.265625 0.125,0 0.296875,-0.078125 0.375,-0.28125 C 1.46875,-0.203125 1.796875,-1.5625 1.84375,-1.75 c 0.078125,-0.328125 0.265625,-1.015625 0.3125,-1.296875 0.046875,-0.125 0.328125,-0.59375 0.5625,-0.8125 0.078125,-0.0625 0.375,-0.328125 0.796875,-0.328125 0.265625,0 0.40625,0.125 0.421875,0.125 -0.296875,0.046875 -0.515625,0.28125 -0.515625,0.546875 0,0.15625 0.109375,0.34375 0.375,0.34375 0.265625,0 0.546875,-0.234375 0.546875,-0.59375 0,-0.34375 -0.3125,-0.640625 -0.828125,-0.640625 C 2.875,-4.40625 2.4375,-3.921875 2.25,-3.640625 2.15625,-4.09375 1.796875,-4.40625 1.328125,-4.40625 0.875,-4.40625 0.6875,-4.015625 0.59375,-3.84375 0.421875,-3.5 0.296875,-2.90625 0.296875,-2.875 c 0,0.109375 0.09375,0.109375 0.109375,0.109375 0.109375,0 0.109375,-0.015625 0.171875,-0.234375 0.171875,-0.703125 0.375,-1.1875 0.734375,-1.1875 0.15625,0 0.296875,0.078125 0.296875,0.453125 0,0.21875 -0.03125,0.328125 -0.15625,0.84375 z m 0,0"
               style="stroke:none"
               inkscape:connector-curvature="0" />
          </symbol>
          <symbol
             id="textext-9ea3f690-4"
             overflow="visible"
             style="overflow:visible">
            <path
               id="path5351"
               d=""
               style="stroke:none"
               inkscape:connector-curvature="0" />
          </symbol>
          <symbol
             id="textext-9ea3f690-5"
             overflow="visible"
             style="overflow:visible">
            <path
               id="path5354"
               d="m 5.734375,-2.109375 c 0,-0.609375 -0.3125,-0.96875 -1.046875,-0.96875 -0.5625,0 -0.9375,0.296875 -1.125,0.65625 -0.140625,-0.5 -0.515625,-0.65625 -1.015625,-0.65625 -0.578125,0 -0.9375,0.3125 -1.140625,0.6875 v -0.6875 L 0.375,-3 v 0.25 c 0.46875,0 0.53125,0.046875 0.53125,0.390625 v 1.8125 C 0.90625,-0.25 0.828125,-0.25 0.375,-0.25 V 0 C 0.390625,0 0.875,-0.03125 1.171875,-0.03125 1.421875,-0.03125 1.90625,0 1.96875,0 v -0.25 c -0.453125,0 -0.515625,0 -0.515625,-0.296875 V -1.8125 c 0,-0.71875 0.578125,-1.0625 1.03125,-1.0625 0.484375,0 0.546875,0.375 0.546875,0.734375 v 1.59375 C 3.03125,-0.25 2.96875,-0.25 2.515625,-0.25 V 0 C 2.53125,0 3.015625,-0.03125 3.3125,-0.03125 3.5625,-0.03125 4.046875,0 4.109375,0 v -0.25 c -0.453125,0 -0.515625,0 -0.515625,-0.296875 V -1.8125 c 0,-0.71875 0.578125,-1.0625 1.03125,-1.0625 0.484375,0 0.546875,0.375 0.546875,0.734375 v 1.59375 C 5.171875,-0.25 5.109375,-0.25 4.65625,-0.25 V 0 c 0.015625,0 0.5,-0.03125 0.796875,-0.03125 C 5.703125,-0.03125 6.1875,0 6.25,0 v -0.25 c -0.453125,0 -0.515625,0 -0.515625,-0.296875 z m 0,0"
               style="stroke:none"
               inkscape:connector-curvature="0" />
          </symbol>
          <symbol
             id="textext-9ea3f690-6"
             overflow="visible"
             style="overflow:visible">
            <path
               id="path5357"
               d="m 3.109375,-1.875 c 0,-0.359375 0,-0.625 -0.328125,-0.890625 C 2.5,-3 2.171875,-3.109375 1.75,-3.109375 c -0.65625,0 -1.125,0.25 -1.125,0.671875 0,0.234375 0.15625,0.34375 0.34375,0.34375 0.1875,0 0.328125,-0.140625 0.328125,-0.328125 0,-0.109375 -0.0625,-0.265625 -0.25,-0.3125 0.25,-0.171875 0.65625,-0.171875 0.6875,-0.171875 0.390625,0 0.828125,0.25 0.828125,0.84375 v 0.203125 C 2.171875,-1.84375 1.71875,-1.8125 1.203125,-1.625 c -0.625,0.21875 -0.8125,0.609375 -0.8125,0.921875 0,0.59375 0.71875,0.765625 1.21875,0.765625 0.546875,0 0.875,-0.3125 1.03125,-0.578125 0.015625,0.28125 0.203125,0.546875 0.53125,0.546875 0.015625,0 0.6875,0 0.6875,-0.65625 V -1.015625 H 3.625 v 0.375 c 0,0.078125 0,0.40625 -0.265625,0.40625 -0.25,0 -0.25,-0.328125 -0.25,-0.40625 z M 2.5625,-0.984375 c 0,0.671875 -0.59375,0.859375 -0.90625,0.859375 -0.359375,0 -0.6875,-0.234375 -0.6875,-0.578125 0,-0.390625 0.328125,-0.921875 1.59375,-0.96875 z m 0,0"
               style="stroke:none"
               inkscape:connector-curvature="0" />
          </symbol>
          <symbol
             id="textext-9ea3f690-7"
             overflow="visible"
             style="overflow:visible">
            <path
               id="path5360"
               d="m 2.359375,-1.5625 c 0,0 -0.046875,-0.0625 -0.046875,-0.0625 0,-0.03125 0.453125,-0.515625 0.515625,-0.578125 C 3.078125,-2.484375 3.3125,-2.75 3.875,-2.75 V -3 C 3.671875,-2.984375 3.46875,-2.96875 3.28125,-2.96875 3.078125,-2.96875 2.796875,-2.984375 2.59375,-3 v 0.25 c 0.109375,0.015625 0.140625,0.09375 0.140625,0.15625 0,0.015625 0,0.125 -0.109375,0.234375 L 2.140625,-1.8125 1.5625,-2.46875 C 1.484375,-2.546875 1.484375,-2.578125 1.484375,-2.609375 c 0,-0.09375 0.09375,-0.140625 0.1875,-0.140625 V -3 c -0.25,0.015625 -0.515625,0.03125 -0.78125,0.03125 C 0.6875,-2.96875 0.421875,-2.984375 0.21875,-3 v 0.25 c 0.3125,0 0.5,0 0.6875,0.203125 l 0.859375,1 c 0.015625,0.015625 0.0625,0.0625 0.0625,0.078125 0,0.015625 -0.53125,0.59375 -0.59375,0.671875 -0.265625,0.28125 -0.5,0.53125 -1.046875,0.546875 V 0 C 0.390625,-0.015625 0.546875,-0.03125 0.765625,-0.03125 0.96875,-0.03125 1.25,-0.015625 1.453125,0 V -0.25 C 1.375,-0.265625 1.3125,-0.3125 1.3125,-0.40625 1.3125,-0.546875 1.390625,-0.640625 1.5,-0.75 L 2,-1.296875 2.59375,-0.59375 c 0.140625,0.140625 0.140625,0.15625 0.140625,0.203125 0,0.125 -0.15625,0.140625 -0.1875,0.140625 V 0 c 0.0625,0 0.5625,-0.03125 0.78125,-0.03125 C 3.546875,-0.03125 3.78125,-0.015625 4,0 v -0.25 c -0.46875,0 -0.515625,-0.046875 -0.6875,-0.21875 z m 0,0"
               style="stroke:none"
               inkscape:connector-curvature="0" />
          </symbol>
        </g>
      </defs>
      <g
         id="textext-9ea3f690-8">
        <g
           id="g5369"
           style="fill:#000000;fill-opacity:1">
          <use
             id="use5367"
             y="134.765"
             x="223.43201"
             xlink:href="#textext-9ea3f690-1"
             width="100%"
             height="100%" />
        </g>
        <g
           id="g5373"
           style="fill:#000000;fill-opacity:1">
          <use
             id="use5371"
             y="134.765"
             x="231.73399"
             xlink:href="#textext-9ea3f690-3"
             width="100%"
             height="100%" />
        </g>
        <g
           id="g5381"
           style="fill:#000000;fill-opacity:1">
          <use
             id="use5375"
             y="136.259"
             x="236.229"
             xlink:href="#textext-9ea3f690-5"
             width="100%"
             height="100%" />
          <use
             id="use5377"
             y="136.259"
             x="242.77391"
             xlink:href="#textext-9ea3f690-6"
             width="100%"
             height="100%" />
          <use
             id="use5379"
             y="136.259"
             x="246.74548"
             xlink:href="#textext-9ea3f690-7"
             width="100%"
             height="100%" />
        </g>
      </g>
    </g>
  </g>
</svg>
